<svg width="95" height="61" viewBox="0 0 95 61" fill="none" xmlns="http://www.w3.org/2000/svg">
<path d="M8.35838 79.048C5.64628 78.593 3.48657 77.2379 1.87924 74.9825C0.271904 72.7272 -0.304264 70.2434 0.150731 67.5313L10.0779 8.35827C10.5329 5.64617 11.8881 3.48646 14.1434 1.87913C16.3988 0.271794 18.8825 -0.304374 21.5946 0.150621L100.492 13.3868C103.204 13.8418 105.364 15.197 106.971 17.4524C108.578 19.7077 109.155 22.1914 108.7 24.9035L98.7725 84.0766C98.3175 86.7887 96.9623 88.9484 94.707 90.5558C92.4516 92.1631 89.9679 92.7393 87.2558 92.2843L8.35838 79.048ZM53.5979 51.1485L18.2855 19.875L10.0129 69.1859L88.9103 82.4221L97.183 33.1112L53.5979 51.1485ZM55.2525 41.2864L98.8375 23.249L19.9401 10.0128L55.2525 41.2864ZM18.2855 19.875L19.9401 10.0128L18.2855 19.875L10.0129 69.1859L18.2855 19.875Z" fill="white" fill-opacity="0.2"/>
</svg>
