<svg width="171" height="158" viewBox="0 0 171 158" fill="none" xmlns="http://www.w3.org/2000/svg">
<path d="M-32.0397 94.7295C-32.1057 70.4085 -22.7895 46.999 -6.03043 29.3738C10.7287 11.7487 33.6395 1.26582 57.9329 0.107331C82.2264 -1.05116 106.031 7.204 124.391 23.1544C142.751 39.1048 154.253 61.5216 156.501 85.7385C153.776 84.9976 151.035 84.318 148.28 83.7C133.708 80.354 118.663 79.5818 103.824 81.4185C97.9293 82.1565 92.3538 83.3175 87.0978 84.9015C86.4012 83.3852 85.6766 81.8819 84.9243 80.3925C83.9909 78.5613 83.1041 76.7067 82.2648 74.8305C81.0768 72.1305 79.7808 68.6205 80.0103 64.8945C80.2803 60.5745 82.4673 57.0645 85.9908 54.4185C90.2703 51.2055 95.6568 43.848 100.301 36.4095C102.542 32.859 104.445 29.5245 105.795 27.0945L106.106 26.5275C93.0771 18.1642 77.9153 13.7305 62.4333 13.7565H61.7853C63.0138 16.1865 64.3638 19.089 65.5788 22.3155C68.8728 31.0365 71.8428 43.8075 66.5373 55.0935C61.6638 65.4885 53.2533 68.1885 46.9623 69.8085L46.0578 70.038C39.9423 71.6175 37.4178 72.2655 35.5818 75.033C33.8808 77.625 34.1913 80.8785 36.1218 87.183L36.5673 88.6005C37.3368 91.0575 38.2548 93.9735 38.7273 96.7275C39.3213 100.156 39.4833 104.449 37.3233 108.607C35.4903 112.328 32.5592 115.395 28.9263 117.396C26.1169 118.833 23.0873 119.791 19.9623 120.231L19.0443 120.393C14.2113 121.243 11.7543 121.675 9.39181 124.2C7.54231 126.184 6.39481 129.627 5.73331 134.622C5.47231 136.647 5.26981 138.699 5.12581 140.778L5.03131 141.885C4.88068 144.288 4.56948 146.678 4.09981 149.04L3.76231 150.525C12.1123 159.322 22.3312 166.132 33.6648 170.451C31.1268 174.231 28.7688 178.137 26.5908 182.169C9.24725 175.053 -5.58808 162.94 -16.0283 147.37C-26.4686 131.8 -32.042 113.476 -32.0397 94.7295ZM169.448 104.719C168.845 103.739 168.001 102.929 166.997 102.367C165.993 101.805 164.861 101.508 163.71 101.506H163.602L163.251 101.466L162.023 101.223C160.669 100.907 159.323 100.556 157.986 100.17L156.704 99.819C152.949 98.7286 149.162 97.7471 145.35 96.876C132.289 93.8652 118.801 93.1661 105.498 94.8105C89.2713 96.8355 76.8648 102.343 68.4003 110.227C59.8953 118.179 55.7103 128.277 55.7103 138.577C55.7193 141.052 55.8903 143.392 56.2233 145.597C70.3983 133.231 87.8808 123.228 107.199 115.492C108.023 115.163 108.903 114.998 109.79 115.009C110.677 115.019 111.553 115.204 112.369 115.554C113.184 115.903 113.923 116.409 114.543 117.044C115.163 117.678 115.651 118.429 115.981 119.252C116.311 120.076 116.475 120.956 116.465 121.843C116.454 122.73 116.269 123.606 115.92 124.422C115.571 125.237 115.064 125.976 114.43 126.596C113.795 127.216 113.045 127.704 112.221 128.034C101.462 132.34 91.5123 137.308 82.5483 142.911C60.2463 155.925 46.3548 172.638 36.1758 192.996C35.7467 193.792 35.4819 194.665 35.3969 195.565C35.3119 196.465 35.4086 197.373 35.6812 198.235C35.9538 199.097 36.3967 199.895 36.9837 200.583C37.5707 201.27 38.2898 201.833 39.0983 202.237C39.9069 202.641 40.7884 202.879 41.6906 202.936C42.5927 202.993 43.4972 202.869 44.3503 202.57C45.2033 202.271 45.9876 201.803 46.6566 201.195C47.3257 200.587 47.8657 199.851 48.2448 199.03C53.4288 188.689 59.6253 179.388 67.7928 171.112C68.0628 171.625 68.3778 172.183 68.7378 172.786C70.2228 175.297 72.5178 178.659 75.6498 182.047C81.9273 188.797 92.0388 196.006 106.335 196.006C115.137 196.006 122.454 193.765 128.448 189.85C134.388 185.989 138.681 180.738 141.894 175.23C146.862 166.725 149.711 156.6 151.817 149.094C152.348 147.195 152.838 145.498 153.288 144.004C155.624 136.39 159.039 129.559 162.198 123.97C163.809 121.18 165.272 118.746 166.586 116.667L166.802 116.316C167.855 114.681 168.837 113.001 169.745 111.28C170.258 110.252 170.5 109.11 170.448 107.961C170.396 106.813 170.052 105.697 169.448 104.719Z" fill="#059669" fill-opacity="0.1"/>
</svg>
