<svg width="30" height="15" viewBox="0 0 30 15" fill="none" xmlns="http://www.w3.org/2000/svg">
<path d="M30 15V13.0312C30 12.1354 29.5417 11.4062 28.625 10.8438C27.7083 10.2812 26.5 10 25 10C24.7292 10 24.4688 10.0052 24.2188 10.0156C23.9688 10.026 23.7292 10.0521 23.5 10.0938C23.7917 10.5312 24.0104 10.9896 24.1562 11.4688C24.3021 11.9479 24.375 12.4479 24.375 12.9688V15H30ZM22.5 15V12.9688C22.5 12.3021 22.3177 11.6927 21.9531 11.1406C21.5885 10.5885 21.0729 10.1042 20.4062 9.6875C19.7396 9.27083 18.9427 8.95833 18.0156 8.75C17.0885 8.54167 16.0833 8.4375 15 8.4375C13.8958 8.4375 12.8802 8.54167 11.9531 8.75C11.026 8.95833 10.2292 9.27083 9.5625 9.6875C8.89583 10.1042 8.38542 10.5885 8.03125 11.1406C7.67708 11.6927 7.5 12.3021 7.5 12.9688V15H22.5ZM5.625 15V12.9688C5.625 12.4271 5.69271 11.9167 5.82812 11.4375C5.96354 10.9583 6.16667 10.5104 6.4375 10.0938C6.20833 10.0521 5.97396 10.026 5.73438 10.0156C5.49479 10.0052 5.25 10 5 10C3.5 10 2.29167 10.276 1.375 10.8281C0.458334 11.3802 0 12.1146 0 13.0312V15H5.625ZM19.8438 12.5H10.125C10.3333 12.0833 10.9115 11.7188 11.8594 11.4062C12.8073 11.0938 13.8542 10.9375 15 10.9375C16.1458 10.9375 17.1927 11.0938 18.1406 11.4062C19.0885 11.7188 19.6562 12.0833 19.8438 12.5ZM25 8.75C25.6875 8.75 26.276 8.50521 26.7656 8.01562C27.2552 7.52604 27.5 6.9375 27.5 6.25C27.5 5.54167 27.2552 4.94792 26.7656 4.46875C26.276 3.98958 25.6875 3.75 25 3.75C24.2917 3.75 23.6979 3.98958 23.2188 4.46875C22.7396 4.94792 22.5 5.54167 22.5 6.25C22.5 6.9375 22.7396 7.52604 23.2188 8.01562C23.6979 8.50521 24.2917 8.75 25 8.75ZM5 8.75C5.6875 8.75 6.27604 8.50521 6.76562 8.01562C7.25521 7.52604 7.5 6.9375 7.5 6.25C7.5 5.54167 7.25521 4.94792 6.76562 4.46875C6.27604 3.98958 5.6875 3.75 5 3.75C4.29167 3.75 3.69792 3.98958 3.21875 4.46875C2.73958 4.94792 2.5 5.54167 2.5 6.25C2.5 6.9375 2.73958 7.52604 3.21875 8.01562C3.69792 8.50521 4.29167 8.75 5 8.75ZM15 7.5C16.0417 7.5 16.9271 7.13542 17.6562 6.40625C18.3854 5.67708 18.75 4.79167 18.75 3.75C18.75 2.6875 18.3854 1.79688 17.6562 1.07812C16.9271 0.359375 16.0417 0 15 0C13.9375 0 13.0469 0.359375 12.3281 1.07812C11.6094 1.79688 11.25 2.6875 11.25 3.75C11.25 4.79167 11.6094 5.67708 12.3281 6.40625C13.0469 7.13542 13.9375 7.5 15 7.5ZM15 5C14.6458 5 14.349 4.88021 14.1094 4.64062C13.8698 4.40104 13.75 4.10417 13.75 3.75C13.75 3.39583 13.8698 3.09896 14.1094 2.85938C14.349 2.61979 14.6458 2.5 15 2.5C15.3542 2.5 15.651 2.61979 15.8906 2.85938C16.1302 3.09896 16.25 3.39583 16.25 3.75C16.25 4.10417 16.1302 4.40104 15.8906 4.64062C15.651 4.88021 15.3542 5 15 5Z" fill="#FFE373"/>
</svg>
